<?xml version="1.0" standalone="no"?>
<!DOCTYPE svg PUBLIC "-//W3C//DTD SVG 20010904//EN"
 "http://www.w3.org/TR/2001/REC-SVG-20010904/DTD/svg10.dtd">
<svg version="1.0" xmlns="http://www.w3.org/2000/svg"
 width="225.000000pt" height="225.000000pt" viewBox="0 0 225.000000 225.000000"
 preserveAspectRatio="xMidYMid meet">

<g transform="translate(0.000000,225.000000) scale(0.100000,-0.100000)"
fill="#000000" stroke="none">
<path d="M1 1718 c1 -311 5 -505 9 -466 61 519 474 926 1002 987 48 5 -114 9
-469 10 l-543 1 1 -532z"/>
<path d="M1235 2240 c87 -10 148 -24 249 -56 265 -85 511 -297 640 -551 61
-121 104 -269 116 -398 4 -44 8 164 9 468 l1 547 -542 -1 c-317 -1 -514 -5
-473 -9z"/>
<path d="M1117 2152 c-20 -22 -22 -63 -5 -80 30 -30 108 -3 94 33 -6 17 -46
21 -46 5 0 -5 5 -10 10 -10 6 0 10 -5 10 -11 0 -6 -10 -9 -22 -7 -15 2 -24 11
-26 27 -5 29 15 43 39 28 25 -16 38 1 15 19 -27 19 -50 18 -69 -4z"/>
<path d="M1015 2128 l6 -33 -25 28 c-35 38 -60 37 -52 -4 3 -17 6 -42 6 -55 0
-17 4 -22 16 -17 10 4 14 14 11 29 -6 31 -1 30 28 -3 18 -22 26 -25 36 -16 17
17 3 103 -17 103 -12 0 -14 -7 -9 -32z"/>
<path d="M1266 2142 c-22 -82 -13 -116 21 -74 11 12 16 14 20 4 7 -17 33 -42
44 -42 5 0 2 17 -6 37 -15 36 -15 38 7 55 22 17 22 18 3 18 -11 0 -31 -8 -44
-17 -23 -16 -24 -16 -19 5 4 12 0 23 -8 26 -7 3 -15 -3 -18 -12z"/>
<path d="M832 2122 c-7 -5 -15 -32 -19 -60 -5 -44 -3 -52 11 -52 9 0 16 7 16
16 0 11 8 14 32 12 17 -2 33 2 34 7 6 18 -60 86 -74 77z m28 -53 c0 -5 -4 -9
-10 -9 -5 0 -10 7 -10 16 0 8 5 12 10 9 6 -3 10 -10 10 -16z"/>
<path d="M1420 2069 c-26 -33 -30 -43 -19 -50 8 -5 15 -5 17 0 5 14 42 0 42
-15 0 -8 7 -14 15 -14 22 0 21 105 -1 114 -9 3 -17 6 -18 6 -2 0 -18 -18 -36
-41z m36 -26 c-10 -10 -19 5 -10 18 6 11 8 11 12 0 2 -7 1 -15 -2 -18z"/>
<path d="M672 2058 c-7 -7 -12 -21 -12 -32 -1 -19 -2 -20 -13 -4 -8 10 -18 13
-26 9 -10 -7 -8 -17 8 -50 22 -42 58 -59 46 -22 -8 25 9 35 34 19 15 -9 23
-10 32 -1 8 8 3 15 -21 28 -26 14 -31 21 -26 41 7 26 -3 31 -22 12z"/>
<path d="M1556 2041 c-8 -13 3 -38 20 -45 16 -6 19 -36 4 -36 -5 0 -14 9 -20
20 -13 23 -30 26 -30 5 0 -19 44 -48 67 -43 26 5 28 37 3 63 -13 14 -17 25
-11 29 5 4 15 -3 21 -14 11 -20 30 -27 30 -11 0 30 -70 56 -84 32z"/>
<path d="M1010 2009 c-79 -10 -217 -52 -285 -86 -235 -119 -416 -352 -472
-607 -22 -98 -22 -301 0 -390 58 -232 194 -427 389 -553 401 -259 946 -151
1216 241 109 157 156 311 155 506 -1 199 -44 345 -147 499 -186 278 -526 433
-856 390z m133 -102 c10 -6 20 -28 23 -48 5 -29 2 -41 -15 -58 -24 -24 -59
-27 -86 -7 -27 20 -27 92 0 112 23 17 56 18 78 1z m-164 -38 c-12 -31 -11 -33
21 -60 28 -24 31 -29 16 -35 -11 -4 -25 1 -40 15 -30 28 -40 27 -32 -5 6 -21
3 -25 -10 -22 -12 2 -22 21 -30 58 -17 70 -17 70 0 70 8 0 18 -10 22 -22 6
-20 7 -21 16 -2 12 22 40 46 46 39 3 -2 -1 -19 -9 -36z m265 -14 c-7 -54 -6
-55 20 -55 16 0 26 -5 26 -15 0 -16 -12 -18 -59 -9 -28 6 -31 10 -27 33 2 14
7 43 11 64 4 23 11 37 21 37 11 0 13 -10 8 -55z m187 -56 c8 -70 -3 -97 -22
-56 -12 26 -45 42 -55 26 -3 -5 -14 -9 -25 -9 -18 0 -19 2 -6 20 31 45 79 91
90 87 7 -2 15 -32 18 -68z m-586 51 c3 -6 -5 -14 -19 -20 -36 -13 -33 -31 4
-23 36 7 40 -8 8 -30 -28 -18 -18 -33 11 -17 21 11 41 6 41 -10 0 -8 -80 -44
-85 -38 -6 6 -45 109 -45 118 0 8 44 28 67 29 6 1 15 -4 18 -9z m698 -46 c-1
-5 -5 -17 -8 -26 -10 -25 24 -37 40 -15 14 20 35 22 35 5 0 -19 -58 -108 -70
-108 -13 0 -13 16 0 40 8 15 6 21 -10 30 -16 8 -22 7 -32 -10 -13 -21 -38 -27
-38 -10 0 20 63 111 74 107 6 -3 10 -8 9 -13z m-841 -35 c-11 -4 -23 -13 -28
-20 -5 -9 1 -10 26 -6 39 8 60 -6 60 -39 0 -25 -26 -44 -59 -44 -29 0 -26 17
5 24 38 10 24 31 -18 28 -38 -4 -54 14 -43 48 8 24 46 40 63 27 11 -9 10 -12
-6 -18z m-91 -141 c17 -26 40 -49 54 -52 13 -3 58 -29 100 -57 82 -55 106 -90
80 -115 -22 -23 -18 -30 5 -9 13 12 18 25 14 38 -5 16 -3 17 14 8 50 -27 83
-107 64 -158 -6 -15 -21 -58 -35 -95 -23 -61 -23 -69 -9 -89 13 -18 13 -25 2
-43 -12 -19 -12 -20 3 -7 15 12 17 11 17 -7 0 -37 -52 -37 -94 0 -6 5 -26 18
-44 29 -22 13 -32 25 -28 34 3 8 1 15 -4 15 -17 0 -80 70 -80 89 0 9 -11 28
-24 40 -13 12 -26 33 -29 47 -5 27 2 30 23 12 8 -7 -3 6 -23 30 -25 29 -37 52
-37 73 0 21 4 28 12 23 6 -4 0 8 -14 27 -29 37 -44 82 -33 99 5 8 11 8 20 0 7
-6 2 11 -11 37 -26 51 -29 78 -13 120 l11 28 14 -35 c8 -19 29 -56 45 -82z
m685 91 c79 -24 164 -67 214 -109 51 -42 30 -48 -24 -7 -25 19 -71 47 -102 62
-49 23 -60 25 -80 15 l-23 -13 24 -31 c24 -33 85 -145 85 -158 0 -25 -22 1
-53 65 -52 106 -60 111 -141 96 -42 -8 -66 -17 -66 -26 0 -7 -4 -13 -10 -13
-5 0 -10 6 -10 13 0 7 -26 17 -67 25 -65 13 -68 12 -85 -10 -10 -13 -33 -53
-51 -90 -17 -38 -35 -68 -40 -68 -18 0 27 101 70 158 14 18 23 35 22 36 -2 2
-13 8 -25 14 -25 13 -99 -18 -171 -73 -54 -41 -74 -37 -24 5 48 41 146 91 216
111 89 26 254 25 341 -2z m421 -35 c3 -29 -2 -52 -20 -87 -13 -26 -19 -43 -12
-37 9 8 14 6 18 -4 9 -22 -3 -58 -31 -95 -14 -19 -20 -31 -14 -27 8 5 12 -2
12 -23 0 -21 -12 -44 -37 -73 -21 -24 -30 -37 -20 -29 15 12 17 11 17 -11 0
-13 -11 -35 -24 -47 -13 -12 -26 -35 -29 -50 -4 -18 -21 -40 -45 -57 -21 -16
-37 -34 -35 -41 3 -7 -10 -21 -29 -32 -18 -11 -38 -24 -44 -29 -43 -38 -94
-37 -94 1 0 16 3 18 12 9 7 -7 17 -12 23 -12 5 0 2 5 -7 11 -25 14 -22 38 5
49 12 5 16 9 9 9 -6 1 -11 4 -10 9 2 4 -12 49 -31 99 -40 110 -37 144 15 200
29 30 37 34 44 23 8 -13 10 -12 10 2 0 20 107 99 171 127 33 15 52 33 76 73
17 29 34 64 38 77 9 31 25 14 32 -35z m-505 -106 c7 -7 29 -13 48 -13 28 0 35
-4 35 -20 0 -14 -6 -19 -18 -17 -9 2 -25 -1 -34 -6 -14 -9 -14 -10 6 -17 30
-9 22 -28 -17 -39 -37 -10 -40 -28 -12 -71 11 -16 17 -38 14 -47 -3 -10 -1
-18 4 -18 5 0 13 -19 19 -42 6 -24 14 -52 18 -62 7 -16 5 -18 -8 -13 -9 3 -17
2 -17 -4 0 -6 -4 -7 -10 -4 -5 3 -10 1 -10 -5 0 -7 -7 -10 -15 -7 -8 4 -17 2
-20 -3 -3 -5 -12 -7 -20 -3 -8 3 -15 0 -15 -6 0 -6 -7 -8 -15 -5 -9 4 -15 0
-15 -7 0 -12 -2 -12 -9 0 -5 7 -13 11 -19 7 -5 -3 -13 2 -16 11 -6 14 -9 15
-15 4 -6 -9 -11 -10 -15 -3 -4 6 -13 9 -21 5 -8 -3 -15 0 -15 7 0 6 -4 8 -10
5 -5 -3 -10 -2 -10 4 0 6 -7 8 -15 5 -16 -7 -22 21 -6 30 5 3 12 23 16 43 4
21 10 42 13 48 4 5 7 15 7 20 0 6 6 27 14 49 11 32 11 45 1 77 -7 22 -10 42
-7 45 3 4 1 16 -4 27 -10 18 -9 19 18 14 16 -3 52 0 79 8 64 17 80 18 96 3z
m-688 -193 c-23 -44 -51 -43 -46 0 2 17 13 40 25 53 22 23 22 23 31 3 7 -15 4
-31 -10 -56z m1246 14 c0 -9 6 -32 14 -51 27 -64 39 -201 26 -291 -12 -84 -42
-183 -60 -201 -6 -6 -1 16 10 49 29 84 36 220 17 320 -8 44 -18 87 -22 97 -4
11 -1 18 12 21 16 4 16 5 -2 6 -34 2 -60 64 -46 110 3 11 51 -45 51 -60z
m-1205 -49 c-4 -13 -1 -22 9 -26 9 -3 16 -13 16 -20 0 -11 -4 -12 -19 -4 -17
8 -21 5 -30 -23 -5 -17 -13 -53 -17 -79 -6 -47 -6 -48 20 -48 14 0 26 -4 26
-10 0 -5 -12 -10 -26 -10 -27 0 -27 0 -21 -63 7 -77 15 -100 33 -93 8 3 21 9
29 12 26 11 16 -16 -10 -28 -32 -14 -31 -19 5 -97 17 -35 29 -69 27 -75 -8
-20 -77 138 -92 209 -23 112 -15 244 21 336 16 39 41 56 29 19z m1149 -32 c27
-84 38 -196 26 -276 -15 -107 -72 -252 -100 -252 -5 0 7 35 27 77 22 44 33 78
26 80 -22 8 -48 32 -40 39 4 4 13 2 19 -4 21 -21 37 -13 42 21 17 111 17 127
2 127 -9 0 -16 5 -16 10 0 6 6 10 13 10 11 0 12 12 6 54 -11 86 -17 98 -40 86
-13 -8 -19 -7 -19 0 0 6 7 13 16 17 11 4 13 13 9 34 -11 50 11 32 29 -23z
m-1227 24 c8 -5 7 -21 -5 -62 -22 -79 -22 -287 1 -359 20 -65 21 -75 2 -41
-45 83 -63 292 -36 413 13 58 17 63 38 49z m146 -224 c14 -18 33 -49 43 -68
l19 -35 3 28 c4 29 26 37 36 12 3 -8 3 -23 0 -32 -5 -15 -4 -16 5 -3 8 12 11
12 11 1 0 -10 3 -11 13 -3 15 13 57 -10 57 -30 0 -6 -7 -5 -17 3 -16 13 -17
12 -4 -3 7 -10 17 -15 22 -12 5 3 9 -2 9 -10 0 -9 5 -16 10 -16 6 0 8 11 4 25
-7 27 4 32 37 14 11 -5 16 -15 13 -21 -4 -6 -3 -8 4 -4 6 3 15 -1 20 -10 8
-15 18 -16 81 -6 39 6 83 7 98 3 16 -4 41 -4 57 0 17 5 60 4 100 -2 51 -8 71
-8 74 0 2 6 10 11 18 11 8 0 17 7 20 15 8 19 28 19 44 0 9 -11 16 -12 31 -2
10 6 19 18 19 26 0 10 9 12 34 8 33 -5 39 -1 46 28 4 22 25 36 45 32 19 -3 22
1 23 31 2 38 14 52 50 52 25 0 48 -39 38 -65 -3 -9 -20 -22 -36 -28 -23 -9
-30 -18 -30 -39 0 -32 -7 -37 -54 -40 -26 -2 -36 -8 -36 -20 0 -28 -37 -47
-72 -38 -25 8 -33 5 -51 -15 l-22 -24 -39 19 c-50 25 -150 43 -193 35 -48 -9
-41 -25 11 -25 59 0 163 -33 267 -85 80 -41 153 -66 224 -78 25 -5 33 -1 40
16 8 18 21 23 75 28 36 3 67 4 69 2 2 -1 -3 -11 -13 -22 -16 -18 -16 -20 11
-39 l28 -20 -47 -7 c-29 -4 -58 -17 -73 -31 -31 -28 -39 -29 -141 -9 -50 9
-120 35 -194 69 -150 71 -202 86 -288 87 -89 1 -157 -18 -302 -86 -103 -48
-229 -85 -289 -85 -11 0 -32 11 -46 24 -15 14 -44 27 -72 31 l-47 7 24 18 c22
17 24 21 12 41 -7 11 -12 22 -10 24 2 1 32 0 68 -4 50 -5 67 -10 75 -26 7 -15
18 -19 40 -17 57 6 139 34 224 77 104 52 208 85 267 85 24 0 44 4 44 9 0 17
-40 23 -101 16 -32 -4 -62 -7 -66 -7 -5 0 -26 -11 -49 -24 -44 -26 -79 -31
-90 -12 -4 6 0 16 9 23 27 20 19 25 -11 8 -20 -11 -39 -14 -65 -9 -40 7 -49
25 -17 33 35 9 21 18 -22 15 -26 -2 -51 2 -62 11 -24 18 -12 40 20 34 30 -5
22 9 -16 28 -32 16 -60 61 -60 95 0 29 15 25 43 -12z m357 -21 c0 -10 5 -15
10 -12 6 4 19 4 28 0 16 -6 16 -8 -2 -20 -13 -10 -17 -22 -14 -40 4 -16 1 -24
-6 -22 -6 2 -11 13 -11 24 0 12 -4 25 -8 29 -4 5 -5 1 -1 -9 5 -13 2 -16 -10
-11 -9 3 -13 10 -10 15 3 5 1 9 -5 9 -5 0 -12 -6 -15 -12 -4 -7 -5 -4 -2 8 2
12 -1 29 -6 38 -6 11 -5 16 5 16 8 0 18 8 21 17 6 15 8 15 16 3 6 -8 10 -23
10 -33z m147 -2 c-4 -10 7 -12 46 -10 69 3 64 1 81 33 12 23 15 25 21 10 4
-10 14 -18 22 -18 12 0 13 -3 5 -13 -6 -7 -8 -24 -5 -38 4 -19 3 -21 -7 -12
-9 8 -18 4 -40 -20 l-27 -31 5 32 c4 27 1 32 -23 38 -15 4 -31 2 -37 -4 -6 -6
-18 -8 -27 -5 -10 3 -12 2 -4 -4 6 -4 15 -21 19 -37 6 -26 5 -27 -15 -17 -11
7 -21 14 -21 17 0 3 4 2 10 -1 5 -3 7 0 4 8 -4 12 -11 10 -31 -9 -31 -29 -43
-30 -36 -4 3 10 10 18 15 17 6 -1 13 4 16 12 2 8 0 11 -5 8 -11 -7 -53 20 -53
34 0 5 14 2 31 -7 17 -8 29 -11 25 -6 -3 5 -1 24 6 42 9 27 12 30 20 16 5 -10
7 -23 5 -31z m-97 -310 c-7 -8 -20 -15 -30 -15 -22 0 -36 -30 -15 -31 8 0 67
0 130 0 63 0 122 0 130 0 21 1 7 31 -15 31 -10 0 -24 8 -31 17 -13 15 -11 16
16 10 63 -12 85 -26 85 -51 0 -16 7 -27 20 -31 11 -3 20 -11 20 -16 0 -5 6 -9
13 -9 16 0 37 -41 37 -71 0 -17 -6 -19 -77 -17 -62 2 -77 6 -81 20 -5 22 -67
45 -117 42 -22 -2 -48 -3 -58 -3 -11 -1 -31 -13 -45 -29 -24 -24 -35 -28 -99
-30 -67 -2 -73 -1 -73 17 0 35 21 69 56 87 21 12 34 27 36 43 3 24 47 48 92
50 15 1 16 -2 6 -14z m463 -157 c-133 -106 -349 -154 -518 -114 -77 18 -194
73 -239 112 -42 37 -23 42 27 7 50 -36 121 -73 139 -73 7 0 40 11 73 25 33 13
74 25 92 25 17 0 35 5 39 11 4 8 9 8 17 0 6 -6 25 -11 42 -11 16 0 57 -12 90
-25 33 -14 65 -25 71 -25 16 0 123 58 159 86 16 12 33 20 37 18 5 -3 -8 -19
-29 -36z m-739 -129 c0 -55 -11 -99 -24 -99 -6 0 -10 11 -10 24 0 27 -27 41
-59 31 -11 -3 -22 -1 -25 4 -8 12 92 93 108 88 6 -2 11 -24 10 -48z m787 14
c59 -46 62 -63 12 -60 -31 2 -37 -1 -43 -22 -11 -47 -28 -33 -39 34 -17 98 -6
106 70 48z m-679 -71 l11 -46 14 39 c16 46 15 46 31 36 10 -6 8 -21 -9 -67
-12 -32 -23 -61 -25 -63 -6 -7 -34 21 -34 35 0 7 -5 25 -11 41 l-11 28 -12
-32 c-6 -18 -14 -33 -18 -33 -5 0 -12 0 -17 0 -9 0 19 95 34 121 12 18 35 -11
47 -59z m556 41 c2 -8 -6 -13 -22 -13 -37 0 -32 -18 5 -22 61 -6 64 -61 5 -83
-21 -7 -29 -6 -36 5 -7 12 -2 17 20 23 41 11 37 25 -7 29 -32 2 -39 7 -41 27
-6 41 63 71 76 34z m-390 -29 c12 -4 22 -13 22 -21 0 -11 -8 -12 -35 -7 -30 5
-36 3 -44 -17 -10 -28 3 -59 24 -59 8 0 15 5 15 10 0 6 -4 10 -10 10 -5 0 -10
7 -10 16 0 11 8 14 28 12 22 -2 27 -7 24 -28 -4 -42 -10 -50 -40 -50 -43 0
-66 22 -66 63 0 59 35 86 92 71z m281 -45 c35 -56 38 -69 16 -69 -8 0 -15 5
-15 10 0 6 -12 10 -26 10 -17 0 -28 -6 -31 -20 -3 -11 -12 -20 -20 -20 -12 0
-14 9 -8 48 16 112 34 121 84 41z m-200 19 l8 -22 14 22 c8 12 22 22 31 22 24
0 23 -9 -3 -37 l-22 -22 27 -35 c33 -44 16 -59 -25 -20 l-29 28 0 -27 c0 -17
-5 -27 -15 -27 -12 0 -15 14 -15 70 0 70 13 91 29 48z"/>
<path d="M1081 1876 c-7 -8 -9 -25 -5 -40 9 -36 51 -37 60 -1 11 43 -29 72
-55 41z"/>
<path d="M1385 1810 c-3 -5 -1 -10 4 -10 6 0 11 5 11 10 0 6 -2 10 -4 10 -3 0
-8 -4 -11 -10z"/>
<path d="M580 1536 c0 -2 8 -10 18 -17 15 -13 16 -12 3 4 -13 16 -21 21 -21
13z"/>
<path d="M710 1495 c13 -14 26 -25 28 -25 3 0 -5 11 -18 25 -13 14 -26 25 -28
25 -3 0 5 -11 18 -25z"/>
<path d="M650 1455 c13 -14 26 -25 28 -25 3 0 -5 11 -18 25 -13 14 -26 25 -28
25 -3 0 5 -11 18 -25z"/>
<path d="M650 1376 c0 -2 8 -10 18 -17 15 -13 16 -12 3 4 -13 16 -21 21 -21
13z"/>
<path d="M826 1247 c3 -10 9 -15 12 -12 3 3 0 11 -7 18 -10 9 -11 8 -5 -6z"/>
<path d="M778 1243 c6 -2 18 -2 25 0 6 3 1 5 -13 5 -14 0 -19 -2 -12 -5z"/>
<path d="M982 1709 c-18 -5 -30 -14 -27 -19 9 -15 20 -12 46 10 27 22 27 22
-19 9z"/>
<path d="M1040 1701 c-19 -10 -34 -22 -33 -27 2 -11 38 -22 76 -23 24 -1 27 2
27 34 0 41 -16 45 -70 16z"/>
<path d="M1130 1685 c0 -32 3 -35 28 -35 15 1 41 7 57 14 l30 13 -35 21 c-19
12 -45 22 -57 22 -20 0 -23 -5 -23 -35z"/>
<path d="M1243 1700 c15 -12 32 -18 38 -15 14 10 1 21 -36 29 l-30 8 28 -22z"/>
<path d="M1649 1523 c-13 -16 -12 -17 4 -4 9 7 17 15 17 17 0 8 -8 3 -21 -13z"/>
<path d="M1539 1503 c-13 -16 -12 -17 4 -4 9 7 17 15 17 17 0 8 -8 3 -21 -13z"/>
<path d="M1594 1458 l-19 -23 23 19 c21 18 27 26 19 26 -2 0 -12 -10 -23 -22z"/>
<path d="M1539 1413 c-13 -16 -12 -17 4 -4 9 7 17 15 17 17 0 8 -8 3 -21 -13z"/>
<path d="M1395 1400 c21 -24 26 -25 19 -6 -3 8 -13 17 -22 21 -13 5 -13 2 3
-15z"/>
<path d="M1579 1363 c-13 -16 -12 -17 4 -4 9 7 17 15 17 17 0 8 -8 3 -21 -13z"/>
<path d="M1421 1354 c0 -11 3 -14 6 -6 3 7 2 16 -1 19 -3 4 -6 -2 -5 -13z"/>
<path d="M1422 1290 c0 -14 2 -19 5 -12 2 6 2 18 0 25 -3 6 -5 1 -5 -13z"/>
<path d="M1443 1243 c9 -2 23 -2 30 0 6 3 -1 5 -18 5 -16 0 -22 -2 -12 -5z"/>
<path d="M1386 1173 c-6 -14 -5 -15 5 -6 7 7 10 15 7 18 -3 3 -9 -2 -12 -12z"/>
<path d="M1168 1563 c34 -4 42 -17 17 -27 -16 -6 -46 2 -55 14 -3 4 -20 5 -38
3 -36 -6 -39 -13 -45 -110 -2 -34 0 -60 5 -57 4 3 8 0 8 -7 0 -8 4 -8 15 1 12
10 15 10 15 -1 0 -11 2 -11 10 1 9 13 11 13 20 0 8 -12 10 -12 10 -1 0 11 3
11 15 1 12 -10 15 -9 15 6 0 17 1 17 15 -2 9 -12 14 -14 15 -6 0 7 4 10 10 7
5 -3 2 7 -7 23 -13 23 -22 28 -47 25 l-31 -3 29 10 c15 5 36 15 45 23 9 8 25
17 36 20 12 3 7 5 -15 6 l-35 2 30 24 c16 13 41 26 55 28 14 2 8 4 -12 3 -22
-1 -40 4 -42 11 -3 8 -20 12 -38 11 l-33 -1 33 -4z"/>
<path d="M1630 1130 c-13 -8 -12 -11 5 -24 11 -9 23 -16 28 -16 19 -1 22 1 23
13 1 31 -28 45 -56 27z"/>
<path d="M630 1090 c6 -11 13 -20 16 -20 2 0 0 9 -6 20 -6 11 -13 20 -16 20
-2 0 0 -9 6 -20z"/>
<path d="M1560 1043 c1 -9 36 -53 43 -53 9 0 16 30 11 45 -6 15 -54 22 -54 8z"/>
<path d="M750 991 c0 -5 5 -13 10 -16 6 -3 10 -2 10 4 0 5 -4 13 -10 16 -5 3
-10 2 -10 -4z"/>
<path d="M1470 996 c0 -2 5 -17 11 -35 12 -35 28 -37 40 -4 6 18 3 23 -22 32
-16 5 -29 9 -29 7z"/>
<path d="M1380 935 c0 -37 8 -43 28 -23 18 18 15 36 -8 48 -18 10 -20 8 -20
-25z"/>
<path d="M1005 886 c-69 -20 -142 -49 -225 -91 -75 -38 -171 -65 -232 -65 -37
0 -55 -19 -20 -21 77 -7 180 20 307 80 144 69 196 84 290 84 93 1 144 -14 290
-84 126 -60 218 -84 303 -80 38 2 24 21 -15 21 -63 0 -160 28 -243 69 -137 69
-215 93 -315 97 -58 3 -108 -1 -140 -10z"/>
<path d="M436 765 c4 -8 10 -15 14 -15 5 0 15 -3 24 -6 10 -4 16 -1 16 9 0 8
-10 17 -22 21 -34 9 -38 7 -32 -9z"/>
<path d="M1773 773 c-7 -2 -13 -12 -13 -20 0 -10 6 -13 16 -9 9 3 19 6 24 6 4
0 10 7 14 15 5 15 -15 19 -41 8z"/>
<path d="M1725 750 c-3 -5 -1 -10 4 -10 6 0 11 5 11 10 0 6 -2 10 -4 10 -3 0
-8 -4 -11 -10z"/>
<path d="M1031 679 c-22 -9 -42 -15 -45 -11 -3 3 -6 1 -6 -5 0 -14 -54 -33
-91 -33 -16 0 -29 -5 -29 -11 0 -19 79 -3 148 31 87 42 143 41 247 -5 82 -36
119 -43 130 -25 4 6 -6 10 -23 10 -38 0 -92 19 -92 33 0 6 -3 8 -6 4 -4 -3
-20 1 -37 10 -45 23 -147 24 -196 2z"/>
<path d="M1320 676 c0 -8 4 -17 9 -20 5 -4 7 3 4 14 -6 23 -13 26 -13 6z"/>
<path d="M916 663 c-6 -14 -5 -15 5 -6 7 7 10 15 7 18 -3 3 -9 -2 -12 -12z"/>
<path d="M1028 583 c-10 -2 -18 -9 -18 -14 0 -12 39 -36 73 -44 26 -7 27 -5
27 29 0 34 -2 36 -32 35 -18 -1 -41 -3 -50 -6z"/>
<path d="M1130 554 c0 -35 1 -35 32 -28 35 7 78 32 78 44 0 8 -50 20 -86 20
-21 0 -24 -5 -24 -36z"/>
<path d="M955 550 c-3 -5 0 -10 9 -10 8 0 23 -3 33 -7 16 -6 16 -5 4 10 -15
19 -37 22 -46 7z"/>
<path d="M1245 543 c-20 -15 -19 -15 5 -9 14 3 31 6 38 6 7 0 10 5 7 10 -9 14
-27 12 -50 -7z"/>
<path d="M726 501 c-4 -7 -5 -15 -2 -18 9 -9 19 4 14 18 -4 11 -6 11 -12 0z"/>
<path d="M1510 490 c0 -5 5 -10 11 -10 5 0 7 5 4 10 -3 6 -8 10 -11 10 -2 0
-4 -4 -4 -10z"/>
<path d="M1270 406 c0 -9 5 -16 10 -16 6 0 10 4 10 9 0 6 -4 13 -10 16 -5 3
-10 -1 -10 -9z"/>
<path d="M532 1977 c-7 -8 -7 -18 -2 -27 20 -31 11 -44 -13 -22 -20 19 -26 20
-41 9 -16 -12 -15 -16 14 -55 17 -24 35 -40 41 -37 5 4 1 18 -11 35 -29 41
-25 48 9 16 39 -37 54 -27 35 22 l-15 37 24 -27 c43 -52 52 -27 11 28 -29 37
-36 40 -52 21z"/>
<path d="M1678 1946 c-49 -34 -52 -46 -11 -46 16 0 27 -8 33 -25 14 -38 25
-30 39 27 9 41 9 54 -1 64 -10 10 -23 5 -60 -20z m34 -28 c-6 -6 -15 -8 -19
-4 -4 4 -1 11 7 16 19 12 27 3 12 -12z"/>
<path d="M379 1849 c-40 -40 -14 -63 49 -44 32 11 28 -13 -5 -27 -28 -12 -28
-12 -4 -16 41 -7 73 50 39 71 -12 8 -23 8 -42 -3 -14 -7 -29 -10 -33 -6 -4 4
3 9 15 13 12 3 22 12 22 19 0 20 -17 17 -41 -7z"/>
<path d="M1830 1852 c0 -5 9 -12 21 -15 34 -9 11 -30 -26 -24 -50 8 -59 -4
-29 -41 28 -33 51 -34 34 -1 -10 17 -7 19 20 19 34 0 49 23 33 49 -11 18 -53
28 -53 13z"/>
<path d="M2240 1041 c0 -27 -6 -83 -14 -123 -92 -479 -484 -845 -971 -907 -47
-6 103 -9 463 -10 l532 -1 0 545 c0 300 -2 545 -5 545 -3 0 -5 -22 -5 -49z"/>
<path d="M2 533 l-2 -533 533 2 c292 1 514 3 492 5 -72 7 -199 35 -270 60
-418 149 -700 512 -748 963 -2 19 -5 -205 -5 -497z"/>
<path d="M303 592 l-33 -27 20 -25 c10 -14 22 -22 26 -18 4 4 1 15 -6 24 -14
16 -14 17 30 44 10 6 12 12 5 19 -7 6 -21 1 -42 -17z"/>
<path d="M1897 592 c-30 -33 -15 -72 28 -72 40 0 60 45 31 69 -11 9 -15 8 -20
-5 -8 -22 -8 -26 4 -19 6 3 10 -1 10 -9 0 -17 -9 -20 -34 -10 -20 8 -21 33 -1
40 8 4 15 10 15 15 0 15 -16 10 -33 -9z"/>
<path d="M356 524 c-52 -18 -54 -22 -22 -33 17 -7 26 -18 26 -33 l0 -23 20 25
c46 58 36 85 -24 64z m29 -24 c-3 -5 -10 -10 -16 -10 -5 0 -9 5 -9 10 0 6 7
10 16 10 8 0 12 -4 9 -10z"/>
<path d="M1850 533 c0 -3 7 -14 16 -24 14 -16 13 -17 -17 -16 -42 2 -45 -12
-8 -42 29 -23 54 -22 31 1 -17 17 -15 28 3 22 8 -4 22 -3 32 0 14 6 12 11 -12
36 -27 29 -45 38 -45 23z"/>
<path d="M405 460 c-27 -28 -29 -58 -3 -32 19 19 25 14 20 -17 -6 -41 10 -45
43 -11 31 32 26 63 -6 34 -19 -17 -19 -16 -13 13 8 43 -8 48 -41 13z"/>
<path d="M1787 463 c-4 -3 3 -17 15 -30 17 -18 19 -26 10 -35 -9 -9 -17 -7
-35 10 -30 29 -44 16 -15 -15 33 -35 78 -25 78 17 0 20 -44 63 -53 53z"/>
<path d="M476 393 c-20 -27 -15 -47 17 -67 13 -9 23 -5 44 16 19 20 24 31 17
38 -8 8 -16 4 -28 -14 -9 -15 -21 -26 -26 -26 -15 0 -12 36 5 50 8 7 12 16 9
21 -9 14 -18 10 -38 -18z"/>
<path d="M1697 384 c-30 -16 -27 -33 10 -66 17 -16 21 -16 41 -2 27 18 28 45
4 67 -22 20 -20 20 -55 1z m43 -23 c7 -14 7 -22 -1 -26 -11 -8 -40 25 -33 37
9 14 23 9 34 -11z"/>
<path d="M551 325 c-20 -34 -20 -35 -1 -45 33 -18 60 -12 72 16 11 23 10 29
-11 45 -31 26 -36 24 -60 -16z m47 -12 c-2 -10 -11 -19 -21 -21 -16 -3 -17 -1
-7 17 13 25 33 28 28 4z"/>
<path d="M1650 331 c15 -28 13 -33 -9 -21 -44 23 -53 5 -20 -41 11 -16 25 -26
31 -23 6 4 6 10 -1 17 -19 19 -12 27 14 17 33 -13 40 3 18 40 -20 34 -51 44
-33 11z"/>
<path d="M677 283 c-11 -10 -8 -20 9 -38 23 -23 8 -32 -16 -10 -18 16 -20 16
-20 2 0 -20 36 -41 56 -33 18 7 18 30 -1 46 -8 7 -12 17 -9 22 3 5 12 1 19 -9
7 -10 16 -15 20 -12 8 9 -23 39 -39 39 -7 0 -16 -3 -19 -7z"/>
<path d="M1540 245 c0 -32 4 -45 14 -45 8 0 17 7 20 16 3 9 13 14 21 10 28
-10 28 18 -1 41 -43 34 -54 30 -54 -22z m40 4 c0 -5 -4 -9 -10 -9 -5 0 -10 7
-10 16 0 8 5 12 10 9 6 -3 10 -10 10 -16z"/>
<path d="M742 232 c-12 -36 1 -62 32 -62 26 0 40 13 50 48 11 33 -11 27 -30
-9 -21 -41 -42 -25 -26 20 9 25 8 31 -3 31 -7 0 -17 -13 -23 -28z"/>
<path d="M1457 247 c-15 -10 -16 -17 -6 -45 11 -33 27 -39 60 -22 20 11 27 40
9 40 -5 0 -10 9 -10 20 0 23 -27 27 -53 7z m33 -17 c0 -5 -4 -10 -10 -10 -5 0
-10 5 -10 10 0 6 5 10 10 10 6 0 10 -4 10 -10z m15 -30 c-3 -5 -10 -10 -16
-10 -5 0 -9 5 -9 10 0 6 7 10 16 10 8 0 12 -4 9 -10z"/>
<path d="M836 206 c-3 -13 -8 -31 -12 -39 -7 -19 39 -35 86 -32 22 2 42 -3 54
-13 18 -16 19 -16 13 8 -4 14 -7 35 -7 46 0 37 -29 37 -51 0 -18 -31 -22 -33
-44 -22 -21 9 -24 16 -19 44 7 37 -11 45 -20 8z m114 -41 c0 -8 -4 -15 -10
-15 -5 0 -7 7 -4 15 4 8 8 15 10 15 2 0 4 -7 4 -15z"/>
<path d="M1295 183 l7 -28 -25 23 c-17 16 -27 20 -32 12 -10 -16 4 -80 17 -80
6 0 8 11 5 26 l-4 25 21 -20 c35 -33 48 -27 40 17 -8 44 -12 52 -26 52 -6 0
-8 -11 -3 -27z"/>
<path d="M998 154 c-2 -29 1 -44 8 -44 16 0 23 78 8 84 -8 3 -13 -11 -16 -40z"/>
<path d="M1040 150 c0 -44 20 -56 21 -12 l1 27 10 -27 c5 -16 13 -28 17 -28 4
0 12 12 18 28 l11 27 2 -35 c1 -29 3 -32 10 -15 16 37 12 75 -8 75 -10 0 -23
-12 -29 -27 l-11 -28 -1 28 c-1 20 -6 27 -21 27 -17 0 -20 -7 -20 -40z"/>
<path d="M1160 149 c-11 -41 -6 -65 9 -40 6 9 18 11 40 6 l32 -7 -21 41 c-26
52 -46 52 -60 0z m40 1 c0 -5 -4 -10 -10 -10 -5 0 -10 5 -10 10 0 6 5 10 10
10 6 0 10 -4 10 -10z"/>
<path d="M1380 170 c0 -5 4 -10 9 -10 6 0 13 5 16 10 3 6 -1 10 -9 10 -9 0
-16 -4 -16 -10z"/>
</g>
</svg>
